<svg width="100" height="100" viewBox="0 0 100 100" fill="none" xmlns="http://www.w3.org/2000/svg">
<g clip-path="url(#clip0_30_18)">
<rect width="100" height="100" rx="15" fill="white"/>
<path fill-rule="evenodd" clip-rule="evenodd" d="M31.8934 16.1984C30.8932 16.6246 30.8788 16.7392 30.8788 24.3172C30.8788 28.1828 30.7932 31.8302 30.6884 32.4228C30.2225 35.0584 28.4212 37.5444 26.1557 38.6782L24.9129 39.3H16.4436H7.97444L7.54205 39.7552C7.1125 40.2078 7.10948 40.2494 7.05493 46.6142L7 53.018L8.18694 54.359C8.83959 55.0966 10.3142 56.735 11.4634 58C12.6127 59.265 14.953 61.875 16.664 63.8C18.3752 65.725 21.485 69.1896 23.575 71.4992C25.665 73.8088 28.1392 76.5538 29.0733 77.5992C30.0072 78.6446 31.9004 80.7376 33.2801 82.25L35.7888 85H40.5053C44.99 85 45.2462 84.9796 45.7206 84.5854L46.2197 84.171V77.4348V70.6986L43.0474 66.9902C41.3027 64.9506 38.3409 61.4934 36.4659 59.3076C30.4436 52.287 30.2545 52.0342 29.5568 50.0646C28.2328 46.3278 28.917 42.3116 31.3159 39.7398C32.1678 38.8266 33.1729 38.2104 38.8333 35.1306C42.4271 33.1754 45.5593 31.351 45.7936 31.0766C46.2178 30.5798 46.2197 30.5484 46.2197 23.7798V16.9818L45.7547 16.491L45.29 16L38.7945 16.0126C35.2222 16.0196 32.1167 16.1032 31.8934 16.1984ZM55.4727 16.1444C54.0763 16.3006 54.0862 16.2502 54.0248 23.518C53.9826 28.5116 54.0259 30.1054 54.2142 30.4788C54.3485 30.7454 54.9674 31.534 55.5898 32.2316C58.2235 35.1836 67.0727 45.4274 68.2614 46.9C70.3773 49.5212 71.2218 51.7576 71.2174 54.7288C71.2134 57.4742 70.4383 59.5394 68.7316 61.3512C67.8106 62.329 66.0316 63.3988 57.3741 68.181C55.9568 68.964 54.6358 69.7928 54.4384 70.023C54.1034 70.4136 54.076 70.893 54.025 77.2222L53.9705 84.003L54.4426 84.5016L54.9146 85H61.8224H68.7301L69.1225 84.473C69.5032 83.9622 69.5153 83.7248 69.5184 76.723C69.522 68.924 69.6331 67.7228 70.5225 65.8738C71.3089 64.2388 72.4205 63.087 74.0159 62.2544L75.4616 61.5L83.6591 61.569L91.8566 61.6382L92.4284 61.0344L93 60.4308V54.2276V48.0244L92.2184 47.0622C91.7885 46.533 89.9159 44.4246 88.057 42.377C84.4991 38.4578 83.7464 37.6166 72.2614 24.7288C68.303 20.287 64.8383 16.5058 64.5617 16.3264C64.1341 16.0488 63.4684 16.005 60.111 16.0336C57.9396 16.0522 55.8523 16.102 55.4727 16.1444Z" fill="black"/>
<g opacity="0.5" filter="url(#filter0_f_30_18)">
<rect width="76.7589" height="106.38" rx="38.3795" transform="matrix(-0.869641 0.493685 0.493685 0.869641 13.7527 35)" fill="black"/>
</g>
</g>
<defs>
<filter id="filter0_f_30_18" x="-94.0624" y="-6.06244" width="201.396" height="212.532" filterUnits="userSpaceOnUse" color-interpolation-filters="sRGB">
<feFlood flood-opacity="0" result="BackgroundImageFix"/>
<feBlend mode="normal" in="SourceGraphic" in2="BackgroundImageFix" result="shape"/>
<feGaussianBlur stdDeviation="27.5" result="effect1_foregroundBlur_30_18"/>
</filter>
<clipPath id="clip0_30_18">
<rect width="100" height="100" rx="15" fill="white"/>
</clipPath>
</defs>
</svg>
