<svg width="313" height="43" viewBox="0 0 313 43" fill="none" xmlns="http://www.w3.org/2000/svg">
<path fill-rule="evenodd" clip-rule="evenodd" d="M274.631 0.123641C274.003 0.389243 273.994 0.460661 273.994 5.18318C273.994 7.59218 273.94 9.8652 273.874 10.2345C273.582 11.877 272.451 13.4262 271.028 14.1328L270.248 14.5203H264.93H259.612L259.34 14.804C259.071 15.086 259.069 15.1119 259.034 19.0784L259 23.0692L259.745 23.9049C260.155 24.3645 261.081 25.3856 261.803 26.1739C262.524 26.9622 263.994 28.5888 265.068 29.7884C266.143 30.988 268.095 33.1471 269.408 34.5865C270.72 36.0258 272.273 37.7364 272.86 38.3879C273.446 39.0394 274.635 40.3437 275.501 41.2862L277.077 43H280.038C282.854 43 283.015 42.9873 283.313 42.7416L283.626 42.4834V38.2855V34.0875L281.634 31.7765C280.539 30.5054 278.679 28.351 277.502 26.9888C273.72 22.6136 273.602 22.4561 273.164 21.2287C272.332 18.8999 272.762 16.3971 274.268 14.7944C274.803 14.2253 275.434 13.8413 278.988 11.922C281.245 10.7035 283.212 9.56657 283.359 9.39556C283.625 9.08596 283.626 9.06639 283.626 4.84828V0.611846L283.334 0.305984L283.043 0L278.964 0.00785072C276.721 0.012213 274.771 0.0643135 274.631 0.123641ZM289.436 0.0899865C288.56 0.187328 288.566 0.155922 288.527 4.68513C288.501 7.79708 288.528 8.79032 288.646 9.02302C288.73 9.18916 289.119 9.68061 289.51 10.1153C291.164 11.955 296.72 18.3388 297.466 19.2565C298.795 20.89 299.325 22.2837 299.323 24.1353C299.32 25.8462 298.833 27.1332 297.762 28.2623C297.183 28.8717 296.066 29.5384 290.63 32.5186C289.74 33.0066 288.911 33.523 288.787 33.6665C288.577 33.9099 288.559 34.2087 288.527 38.153L288.493 42.3787L288.79 42.6894L289.086 43H293.423H297.761L298.007 42.6716C298.246 42.3533 298.254 42.2053 298.256 37.8419C298.258 32.9816 298.328 32.233 298.886 31.0808C299.38 30.0619 300.078 29.3441 301.08 28.8252L301.987 28.3551L307.135 28.3981L312.282 28.4412L312.641 28.0649L313 27.6888V23.823V19.9572L312.509 19.3576C312.239 19.0278 311.063 17.7139 309.896 16.4378C307.662 13.9954 307.19 13.4712 299.978 5.43969C297.493 2.67161 295.317 0.315207 295.143 0.203407C294.875 0.0304102 294.457 0.00311586 292.349 0.020939C290.985 0.0325303 289.675 0.0635633 289.436 0.0899865Z" fill="white"/>
<path d="M37.0408 37.6223C37.0408 38.1036 36.946 38.5505 36.7564 38.9631C36.5841 39.3756 36.3429 39.7366 36.0327 40.046C35.7397 40.3382 35.3865 40.5703 34.9729 40.7422C34.5593 40.9141 34.1199 41 33.6546 41C33.2411 41 32.8189 40.9226 32.3881 40.7679C31.9745 40.6132 31.604 40.364 31.2766 40.0202L6.72059 14.4425V40.4843H0V6.3721C0 5.68452 0.189555 5.06571 0.568665 4.51565C0.965007 3.9484 1.46474 3.52726 2.06787 3.25223C2.70547 2.99439 3.36029 2.93423 4.03235 3.07175C4.70441 3.19207 5.28169 3.50148 5.7642 3.99997L30.3202 29.5519V3.51007H37.0408V37.6223Z" fill="white"/>
<path d="M85.9356 25.3749H64.7141V18.6195H85.9356V25.3749ZM88.9599 40.4843H64.7141C63.7835 40.4843 62.7668 40.321 61.664 39.9944C60.5611 39.6678 59.5358 39.135 58.588 38.3958C57.6575 37.6395 56.8734 36.6683 56.2358 35.4822C55.6154 34.279 55.3053 32.8093 55.3053 31.0732V6.88778C55.3053 6.42367 55.3914 5.98534 55.5637 5.57279C55.7361 5.16025 55.9687 4.79927 56.2617 4.48987C56.5718 4.18046 56.9337 3.93981 57.3473 3.76791C57.7609 3.59602 58.2089 3.51007 58.6914 3.51007H88.9599V10.2139H62.0258V31.0732C62.0258 31.9498 62.2585 32.6202 62.7238 33.0843C63.189 33.5484 63.8697 33.7805 64.7658 33.7805H88.9599V40.4843Z" fill="white"/>
<path d="M141.37 15.8864C141.37 17.4162 141.172 18.7828 140.776 19.986C140.397 21.1893 139.888 22.255 139.251 23.1833C138.613 24.0943 137.863 24.8764 137.002 25.5296C136.157 26.1828 135.279 26.7243 134.365 27.154C133.452 27.5665 132.521 27.8674 131.574 28.0564C130.643 28.2455 129.764 28.3401 128.937 28.3401H126.223V40.4843H119.451V28.3401H116.762C115.935 28.3401 115.048 28.2455 114.1 28.0564C113.17 27.8674 112.239 27.5665 111.308 27.154C110.395 26.7243 109.516 26.1828 108.672 25.5296C107.828 24.8764 107.078 24.0943 106.423 23.1833C105.785 22.255 105.269 21.1893 104.872 19.986C104.493 18.7656 104.304 17.3991 104.304 15.8864V3.51007H111.024V15.8864C111.024 16.763 111.162 17.5538 111.438 18.2585C111.713 18.9461 112.101 19.5391 112.601 20.0376C113.101 20.5361 113.704 20.9229 114.41 21.1979C115.134 21.4557 115.935 21.5847 116.814 21.5847H128.937C129.575 21.4815 130.229 21.3526 130.902 21.1979C131.574 21.026 132.185 20.7424 132.737 20.347C133.288 19.9517 133.745 19.4016 134.107 18.6968C134.469 17.9921 134.65 17.0553 134.65 15.8864V3.51007H141.37V15.8864Z" fill="white"/>
<path d="M195.047 15.938C195.047 17.4678 194.857 18.8344 194.478 20.0376C194.099 21.2409 193.582 22.3066 192.927 23.2348C192.29 24.1459 191.549 24.928 190.704 25.5812C189.86 26.2344 188.973 26.7758 188.042 27.2056C187.129 27.6181 186.198 27.9189 185.25 28.108C184.32 28.2971 183.441 28.3916 182.614 28.3916L196.65 40.4843H186.258L172.249 28.3916H167.415V21.6878H182.614C183.458 21.619 184.225 21.4471 184.914 21.1721C185.621 20.8799 186.224 20.4931 186.724 20.0118C187.241 19.5305 187.637 18.9547 187.913 18.2843C188.188 17.5967 188.326 16.8146 188.326 15.938V11.7094C188.326 11.3312 188.275 11.0476 188.171 10.8585C188.085 10.6522 187.964 10.5061 187.809 10.4202C187.672 10.317 187.516 10.2569 187.344 10.2397C187.189 10.2225 187.043 10.2139 186.905 10.2139H164.727V40.4843H158.006V6.88778C158.006 6.42367 158.092 5.98534 158.265 5.57279C158.437 5.16025 158.67 4.79927 158.963 4.48987C159.273 4.18046 159.635 3.93981 160.048 3.76791C160.462 3.59602 160.91 3.51007 161.392 3.51007H186.905C188.404 3.51007 189.67 3.7851 190.704 4.33516C191.738 4.86803 192.574 5.54701 193.212 6.3721C193.867 7.18 194.332 8.05665 194.608 9.00207C194.9 9.94748 195.047 10.8327 195.047 11.6578V15.938Z" fill="white"/>
<path d="M248 29.6035C248 30.9271 247.828 32.1217 247.483 33.1874C247.156 34.236 246.716 35.1642 246.165 35.9721C245.613 36.78 244.967 37.4676 244.226 38.0348C243.485 38.6021 242.718 39.0662 241.926 39.4272C241.133 39.7882 240.323 40.0546 239.496 40.2265C238.686 40.3984 237.919 40.4843 237.195 40.4843H211.269V33.7805H237.195C238.488 33.7805 239.487 33.4023 240.194 32.646C240.918 31.8897 241.279 30.8755 241.279 29.6035C241.279 28.9847 241.185 28.4174 240.995 27.9017C240.806 27.3861 240.53 26.9391 240.168 26.561C239.823 26.1828 239.392 25.8906 238.876 25.6843C238.376 25.478 237.816 25.3749 237.195 25.3749H221.738C220.652 25.3749 219.481 25.1858 218.223 24.8077C216.965 24.4123 215.793 23.7849 214.707 22.9254C213.639 22.066 212.743 20.9401 212.019 19.5477C211.312 18.1554 210.959 16.4536 210.959 14.4425C210.959 12.4313 211.312 10.7382 212.019 9.36304C212.743 7.97071 213.639 6.8448 214.707 5.98534C215.793 5.10868 216.965 4.48127 218.223 4.10311C219.481 3.70775 220.652 3.51007 221.738 3.51007H244.614V10.2139H221.738C220.463 10.2139 219.463 10.6007 218.74 11.3742C218.033 12.1477 217.68 13.1705 217.68 14.4425C217.68 15.7317 218.033 16.7545 218.74 17.5108C219.463 18.2499 220.463 18.6195 221.738 18.6195H237.247C237.971 18.6367 238.738 18.7398 239.548 18.9289C240.357 19.1008 241.159 19.3758 241.951 19.754C242.761 20.1322 243.528 20.6135 244.252 21.1979C244.976 21.7651 245.613 22.4527 246.165 23.2606C246.733 24.0685 247.181 24.9967 247.509 26.0453C247.836 27.0938 248 28.2799 248 29.6035Z" fill="white"/>
</svg>
